<svg id="visual" viewBox="0 0 540 960" width="540" height="960" xmlns="http://www.w3.org/2000/svg" xmlns:xlink="http://www.w3.org/1999/xlink" version="1.1"><rect x="0" y="0" width="540" height="960" fill="#131315"></rect><defs><linearGradient id="grad1_0" x1="0%" y1="0%" x2="100%" y2="100%"><stop offset="30%" stop-color="#131315" stop-opacity="1"></stop><stop offset="70%" stop-color="#131315" stop-opacity="1"></stop></linearGradient></defs><defs><linearGradient id="grad2_0" x1="0%" y1="0%" x2="100%" y2="100%"><stop offset="30%" stop-color="#131315" stop-opacity="1"></stop><stop offset="70%" stop-color="#131315" stop-opacity="1"></stop></linearGradient></defs><g transform="translate(540, 0)"><path d="M0 216C-18.7 214 -37.4 212 -55.4 206.7C-73.4 201.4 -90.8 192.9 -105 181.9C-119.2 170.8 -130.3 157.4 -145.7 145.7C-161 134 -180.6 124.1 -187.1 108C-193.5 91.9 -186.7 69.8 -189.3 50.7C-191.9 31.7 -204 15.9 -216 0L0 0Z" fill="#e1e1e1"></path></g><g transform="translate(0, 960)"><path d="M0 -216C17.1 -206.7 34.1 -197.5 51 -190.3C67.8 -183.1 84.4 -178 97.5 -168.9C110.6 -159.7 120.1 -146.5 137.2 -137.2C154.3 -127.9 179.1 -122.5 187.1 -108C195.1 -93.5 186.3 -70 188.4 -50.5C190.4 -31 203.2 -15.5 216 0L0 0Z" fill="#e1e1e1"></path></g></svg>