<svg id="visual" viewBox="0 0 540 960" width="540" height="960" xmlns="http://www.w3.org/2000/svg" xmlns:xlink="http://www.w3.org/1999/xlink" version="1.1"><rect x="0" y="0" width="540" height="960" fill="#131315"></rect><path d="M0 850L11.3 845.5C22.7 841 45.3 832 67.8 824.7C90.3 817.3 112.7 811.7 135.2 816.7C157.7 821.7 180.3 837.3 202.8 845.2C225.3 853 247.7 853 270.2 849.2C292.7 845.3 315.3 837.7 337.8 830.2C360.3 822.7 382.7 815.3 405.2 817.2C427.7 819 450.3 830 472.8 831.3C495.3 832.7 517.7 824.3 528.8 820.2L540 816L540 961L528.8 961C517.7 961 495.3 961 472.8 961C450.3 961 427.7 961 405.2 961C382.7 961 360.3 961 337.8 961C315.3 961 292.7 961 270.2 961C247.7 961 225.3 961 202.8 961C180.3 961 157.7 961 135.2 961C112.7 961 90.3 961 67.8 961C45.3 961 22.7 961 11.3 961L0 961Z" fill="#e1e1e5" stroke-linecap="round" stroke-linejoin="miter"></path></svg>